<mxfile host="Electron" modified="2024-06-12T12:28:25.867Z" agent="Mozilla/5.0 (Windows NT 10.0; Win64; x64) AppleWebKit/537.36 (KHTML, like Gecko) draw.io/24.5.3 Chrome/124.0.6367.207 Electron/30.0.6 Safari/537.36" etag="sA9h5vrDH5QH0PTfn5Dx" version="24.5.3" type="device">
  <diagram name="Page-1" id="Cb-Q3iqYAYGIcCufcf77">
    <mxGraphModel dx="1181" dy="876" grid="1" gridSize="10" guides="1" tooltips="1" connect="1" arrows="1" fold="1" page="0" pageScale="1" pageWidth="827" pageHeight="1169" math="0" shadow="0">
      <root>
        <mxCell id="0" />
        <mxCell id="1" parent="0" />
        <mxCell id="nR_ijNIJFMgZy_12w77k-3" value="" style="ellipse;html=1;shape=endState;fillColor=#000000;strokeColor=#ff0000;" vertex="1" parent="1">
          <mxGeometry x="340" y="1280" width="30" height="30" as="geometry" />
        </mxCell>
        <mxCell id="nR_ijNIJFMgZy_12w77k-4" value="" style="ellipse;html=1;shape=startState;fillColor=#000000;strokeColor=#ff0000;" vertex="1" parent="1">
          <mxGeometry x="340" y="50" width="30" height="30" as="geometry" />
        </mxCell>
        <mxCell id="nR_ijNIJFMgZy_12w77k-5" value="" style="edgeStyle=orthogonalEdgeStyle;html=1;verticalAlign=bottom;endArrow=open;endSize=8;strokeColor=#ff0000;rounded=0;" edge="1" source="nR_ijNIJFMgZy_12w77k-4" parent="1" target="nR_ijNIJFMgZy_12w77k-62">
          <mxGeometry relative="1" as="geometry">
            <mxPoint x="355" y="300" as="targetPoint" />
          </mxGeometry>
        </mxCell>
        <mxCell id="nR_ijNIJFMgZy_12w77k-67" value="Automatically" style="edgeLabel;html=1;align=center;verticalAlign=middle;resizable=0;points=[];" vertex="1" connectable="0" parent="nR_ijNIJFMgZy_12w77k-5">
          <mxGeometry x="-0.1941" y="1" relative="1" as="geometry">
            <mxPoint as="offset" />
          </mxGeometry>
        </mxCell>
        <mxCell id="nR_ijNIJFMgZy_12w77k-6" value="Startup" style="swimlane;fontStyle=1;align=center;verticalAlign=middle;childLayout=stackLayout;horizontal=1;startSize=30;horizontalStack=0;resizeParent=0;resizeLast=1;container=0;fontColor=#000000;collapsible=0;rounded=1;arcSize=30;strokeColor=#ff0000;fillColor=#ffffc0;swimlaneFillColor=#ffffc0;dropTarget=0;" vertex="1" parent="1">
          <mxGeometry x="275" y="280" width="160" height="60" as="geometry" />
        </mxCell>
        <mxCell id="nR_ijNIJFMgZy_12w77k-7" value="Downward camera ON" style="text;html=1;strokeColor=none;fillColor=none;align=center;verticalAlign=middle;spacingLeft=4;spacingRight=4;whiteSpace=wrap;overflow=hidden;rotatable=0;fontColor=#000000;" vertex="1" parent="nR_ijNIJFMgZy_12w77k-6">
          <mxGeometry y="30" width="160" height="30" as="geometry" />
        </mxCell>
        <mxCell id="nR_ijNIJFMgZy_12w77k-8" value="" style="edgeStyle=orthogonalEdgeStyle;html=1;verticalAlign=bottom;endArrow=open;endSize=8;strokeColor=#ff0000;rounded=0;entryX=0.5;entryY=0;entryDx=0;entryDy=0;" edge="1" source="nR_ijNIJFMgZy_12w77k-6" parent="1" target="nR_ijNIJFMgZy_12w77k-9">
          <mxGeometry relative="1" as="geometry">
            <mxPoint x="355" y="380" as="targetPoint" />
          </mxGeometry>
        </mxCell>
        <mxCell id="nR_ijNIJFMgZy_12w77k-11" value="Received frames on downward camera&lt;div&gt;or after 2s&lt;/div&gt;" style="edgeLabel;html=1;align=center;verticalAlign=middle;resizable=0;points=[];" vertex="1" connectable="0" parent="nR_ijNIJFMgZy_12w77k-8">
          <mxGeometry x="0.0222" y="2" relative="1" as="geometry">
            <mxPoint x="-2" y="-11" as="offset" />
          </mxGeometry>
        </mxCell>
        <mxCell id="nR_ijNIJFMgZy_12w77k-9" value="Takeoff" style="rounded=1;whiteSpace=wrap;html=1;arcSize=40;fontColor=#000000;fillColor=#ffffc0;strokeColor=#ff0000;fontStyle=1" vertex="1" parent="1">
          <mxGeometry x="295" y="430" width="120" height="40" as="geometry" />
        </mxCell>
        <mxCell id="nR_ijNIJFMgZy_12w77k-10" value="" style="edgeStyle=orthogonalEdgeStyle;html=1;verticalAlign=bottom;endArrow=open;endSize=8;strokeColor=#ff0000;rounded=0;entryX=0.5;entryY=0;entryDx=0;entryDy=0;" edge="1" source="nR_ijNIJFMgZy_12w77k-9" parent="1" target="nR_ijNIJFMgZy_12w77k-15">
          <mxGeometry relative="1" as="geometry">
            <mxPoint x="355" y="540" as="targetPoint" />
          </mxGeometry>
        </mxCell>
        <mxCell id="nR_ijNIJFMgZy_12w77k-12" value="Takeoff sequence ended" style="edgeLabel;html=1;align=center;verticalAlign=middle;resizable=0;points=[];" vertex="1" connectable="0" parent="nR_ijNIJFMgZy_12w77k-10">
          <mxGeometry x="-0.1846" relative="1" as="geometry">
            <mxPoint as="offset" />
          </mxGeometry>
        </mxCell>
        <mxCell id="nR_ijNIJFMgZy_12w77k-15" value="Init pos regulation" style="swimlane;fontStyle=1;align=center;verticalAlign=middle;childLayout=stackLayout;horizontal=1;startSize=30;horizontalStack=0;resizeParent=0;resizeLast=1;container=0;fontColor=#000000;collapsible=0;rounded=1;arcSize=30;strokeColor=#ff0000;fillColor=#ffffc0;swimlaneFillColor=#ffffc0;dropTarget=0;" vertex="1" parent="1">
          <mxGeometry x="250" y="550" width="210" height="70" as="geometry" />
        </mxCell>
        <mxCell id="nR_ijNIJFMgZy_12w77k-16" value="Correct the relative position to the Aruco target" style="text;html=1;strokeColor=none;fillColor=none;align=center;verticalAlign=middle;spacingLeft=4;spacingRight=4;whiteSpace=wrap;overflow=hidden;rotatable=0;fontColor=#000000;" vertex="1" parent="nR_ijNIJFMgZy_12w77k-15">
          <mxGeometry y="30" width="210" height="40" as="geometry" />
        </mxCell>
        <mxCell id="nR_ijNIJFMgZy_12w77k-17" value="" style="edgeStyle=orthogonalEdgeStyle;html=1;verticalAlign=bottom;endArrow=open;endSize=8;strokeColor=#ff0000;rounded=0;exitX=0.5;exitY=1;exitDx=0;exitDy=0;entryX=0.5;entryY=0;entryDx=0;entryDy=0;" edge="1" parent="1" source="nR_ijNIJFMgZy_12w77k-16" target="nR_ijNIJFMgZy_12w77k-22">
          <mxGeometry relative="1" as="geometry">
            <mxPoint x="355" y="700" as="targetPoint" />
            <mxPoint x="365" y="470" as="sourcePoint" />
          </mxGeometry>
        </mxCell>
        <mxCell id="nR_ijNIJFMgZy_12w77k-18" value="Relative distance &amp;lt; 5cm or &quot;Start patroling&quot; signal received" style="edgeLabel;html=1;align=center;verticalAlign=middle;resizable=0;points=[];" vertex="1" connectable="0" parent="nR_ijNIJFMgZy_12w77k-17">
          <mxGeometry x="-0.1846" relative="1" as="geometry">
            <mxPoint as="offset" />
          </mxGeometry>
        </mxCell>
        <mxCell id="nR_ijNIJFMgZy_12w77k-19" value="Patroling" style="swimlane;fontStyle=1;align=center;verticalAlign=middle;childLayout=stackLayout;horizontal=1;startSize=30;horizontalStack=0;resizeParent=0;resizeLast=1;container=0;fontColor=#000000;collapsible=0;rounded=1;arcSize=30;strokeColor=#ff0000;fillColor=#ffffc0;swimlaneFillColor=#ffffc0;dropTarget=0;" vertex="1" parent="1">
          <mxGeometry x="250" y="870" width="210" height="70" as="geometry" />
        </mxCell>
        <mxCell id="nR_ijNIJFMgZy_12w77k-20" value="Follow the given waypoints" style="text;html=1;strokeColor=none;fillColor=none;align=center;verticalAlign=middle;spacingLeft=4;spacingRight=4;whiteSpace=wrap;overflow=hidden;rotatable=0;fontColor=#000000;" vertex="1" parent="nR_ijNIJFMgZy_12w77k-19">
          <mxGeometry y="30" width="210" height="40" as="geometry" />
        </mxCell>
        <mxCell id="nR_ijNIJFMgZy_12w77k-22" value="Init Patroling" style="swimlane;fontStyle=1;align=center;verticalAlign=middle;childLayout=stackLayout;horizontal=1;startSize=30;horizontalStack=0;resizeParent=0;resizeLast=1;container=0;fontColor=#000000;collapsible=0;rounded=1;arcSize=30;strokeColor=#ff0000;fillColor=#ffffc0;swimlaneFillColor=#ffffc0;dropTarget=0;" vertex="1" parent="1">
          <mxGeometry x="250" y="690" width="210" height="110" as="geometry" />
        </mxCell>
        <mxCell id="nR_ijNIJFMgZy_12w77k-23" value="&lt;span style=&quot;background-color: initial;&quot;&gt;- Enable the front camera and progressive switch from the downward to forward camera&lt;/span&gt;&lt;br&gt;&lt;span style=&quot;background-color: initial;&quot;&gt;- Initialize the SLAM&lt;/span&gt;" style="text;html=1;strokeColor=none;fillColor=none;align=left;verticalAlign=middle;spacingLeft=4;spacingRight=4;whiteSpace=wrap;overflow=hidden;rotatable=0;fontColor=#000000;" vertex="1" parent="nR_ijNIJFMgZy_12w77k-22">
          <mxGeometry y="30" width="210" height="80" as="geometry" />
        </mxCell>
        <mxCell id="nR_ijNIJFMgZy_12w77k-26" value="" style="edgeStyle=orthogonalEdgeStyle;html=1;verticalAlign=bottom;endArrow=open;endSize=8;strokeColor=#ff0000;rounded=0;exitX=0.5;exitY=1;exitDx=0;exitDy=0;entryX=0.5;entryY=0;entryDx=0;entryDy=0;" edge="1" parent="1" source="nR_ijNIJFMgZy_12w77k-23" target="nR_ijNIJFMgZy_12w77k-19">
          <mxGeometry relative="1" as="geometry">
            <mxPoint x="365" y="690" as="targetPoint" />
            <mxPoint x="365" y="630" as="sourcePoint" />
          </mxGeometry>
        </mxCell>
        <mxCell id="nR_ijNIJFMgZy_12w77k-27" value="After 1 second" style="edgeLabel;html=1;align=center;verticalAlign=middle;resizable=0;points=[];" vertex="1" connectable="0" parent="nR_ijNIJFMgZy_12w77k-26">
          <mxGeometry x="-0.1846" relative="1" as="geometry">
            <mxPoint as="offset" />
          </mxGeometry>
        </mxCell>
        <mxCell id="nR_ijNIJFMgZy_12w77k-28" value="" style="edgeStyle=orthogonalEdgeStyle;html=1;verticalAlign=bottom;endArrow=open;endSize=8;strokeColor=#ff0000;rounded=0;entryX=0.5;entryY=0;entryDx=0;entryDy=0;exitX=0.5;exitY=1;exitDx=0;exitDy=0;" edge="1" parent="1" source="nR_ijNIJFMgZy_12w77k-20" target="nR_ijNIJFMgZy_12w77k-44">
          <mxGeometry relative="1" as="geometry">
            <mxPoint x="365" y="880" as="targetPoint" />
            <mxPoint x="440" y="980" as="sourcePoint" />
          </mxGeometry>
        </mxCell>
        <mxCell id="nR_ijNIJFMgZy_12w77k-29" value="Last waypoint reached" style="edgeLabel;html=1;align=center;verticalAlign=middle;resizable=0;points=[];" vertex="1" connectable="0" parent="nR_ijNIJFMgZy_12w77k-28">
          <mxGeometry x="-0.1846" relative="1" as="geometry">
            <mxPoint y="-5" as="offset" />
          </mxGeometry>
        </mxCell>
        <mxCell id="nR_ijNIJFMgZy_12w77k-30" value="Aborting" style="swimlane;fontStyle=1;align=center;verticalAlign=middle;childLayout=stackLayout;horizontal=1;startSize=30;horizontalStack=0;resizeParent=0;resizeLast=1;container=0;fontColor=#000000;collapsible=0;rounded=1;arcSize=30;strokeColor=#ff0000;fillColor=#ffffc0;swimlaneFillColor=#ffffc0;dropTarget=0;" vertex="1" parent="1">
          <mxGeometry x="530" y="1000" width="210" height="70" as="geometry" />
        </mxCell>
        <mxCell id="nR_ijNIJFMgZy_12w77k-31" value="Land the drone" style="text;html=1;strokeColor=none;fillColor=none;align=center;verticalAlign=middle;spacingLeft=4;spacingRight=4;whiteSpace=wrap;overflow=hidden;rotatable=0;fontColor=#000000;" vertex="1" parent="nR_ijNIJFMgZy_12w77k-30">
          <mxGeometry y="30" width="210" height="40" as="geometry" />
        </mxCell>
        <mxCell id="nR_ijNIJFMgZy_12w77k-32" value="" style="edgeStyle=orthogonalEdgeStyle;html=1;verticalAlign=bottom;endArrow=open;endSize=8;strokeColor=#ff0000;rounded=0;entryX=0.5;entryY=0;entryDx=0;entryDy=0;" edge="1" parent="1" source="nR_ijNIJFMgZy_12w77k-22" target="nR_ijNIJFMgZy_12w77k-30">
          <mxGeometry relative="1" as="geometry">
            <mxPoint x="365" y="880" as="targetPoint" />
            <mxPoint x="365" y="810" as="sourcePoint" />
          </mxGeometry>
        </mxCell>
        <mxCell id="nR_ijNIJFMgZy_12w77k-33" value="Abort signal received" style="edgeLabel;html=1;align=center;verticalAlign=middle;resizable=0;points=[];" vertex="1" connectable="0" parent="nR_ijNIJFMgZy_12w77k-32">
          <mxGeometry x="-0.1846" relative="1" as="geometry">
            <mxPoint x="-32" as="offset" />
          </mxGeometry>
        </mxCell>
        <mxCell id="nR_ijNIJFMgZy_12w77k-34" value="" style="edgeStyle=orthogonalEdgeStyle;html=1;verticalAlign=bottom;endArrow=open;endSize=8;strokeColor=#ff0000;rounded=0;entryX=0.5;entryY=0;entryDx=0;entryDy=0;" edge="1" parent="1" source="nR_ijNIJFMgZy_12w77k-15" target="nR_ijNIJFMgZy_12w77k-30">
          <mxGeometry relative="1" as="geometry">
            <mxPoint x="645" y="880" as="targetPoint" />
            <mxPoint x="470" y="755" as="sourcePoint" />
          </mxGeometry>
        </mxCell>
        <mxCell id="nR_ijNIJFMgZy_12w77k-35" value="Abort signal received" style="edgeLabel;html=1;align=center;verticalAlign=middle;resizable=0;points=[];" vertex="1" connectable="0" parent="nR_ijNIJFMgZy_12w77k-34">
          <mxGeometry x="-0.1846" relative="1" as="geometry">
            <mxPoint x="-85" y="-13" as="offset" />
          </mxGeometry>
        </mxCell>
        <mxCell id="nR_ijNIJFMgZy_12w77k-36" value="" style="edgeStyle=orthogonalEdgeStyle;html=1;verticalAlign=bottom;endArrow=open;endSize=8;strokeColor=#ff0000;rounded=0;" edge="1" parent="1" source="nR_ijNIJFMgZy_12w77k-9" target="nR_ijNIJFMgZy_12w77k-30">
          <mxGeometry relative="1" as="geometry">
            <mxPoint x="700" y="820" as="targetPoint" />
            <mxPoint x="470" y="595" as="sourcePoint" />
          </mxGeometry>
        </mxCell>
        <mxCell id="nR_ijNIJFMgZy_12w77k-37" value="Abort signal received" style="edgeLabel;html=1;align=center;verticalAlign=middle;resizable=0;points=[];" vertex="1" connectable="0" parent="nR_ijNIJFMgZy_12w77k-36">
          <mxGeometry x="-0.1846" relative="1" as="geometry">
            <mxPoint x="-115" y="-41" as="offset" />
          </mxGeometry>
        </mxCell>
        <mxCell id="nR_ijNIJFMgZy_12w77k-38" value="" style="edgeStyle=orthogonalEdgeStyle;html=1;verticalAlign=bottom;endArrow=open;endSize=8;strokeColor=#ff0000;rounded=0;" edge="1" parent="1" source="nR_ijNIJFMgZy_12w77k-6" target="nR_ijNIJFMgZy_12w77k-30">
          <mxGeometry relative="1" as="geometry">
            <mxPoint x="645" y="880" as="targetPoint" />
            <mxPoint x="425" y="460" as="sourcePoint" />
          </mxGeometry>
        </mxCell>
        <mxCell id="nR_ijNIJFMgZy_12w77k-39" value="Abort signal received" style="edgeLabel;html=1;align=center;verticalAlign=middle;resizable=0;points=[];" vertex="1" connectable="0" parent="nR_ijNIJFMgZy_12w77k-38">
          <mxGeometry x="-0.1846" relative="1" as="geometry">
            <mxPoint x="-115" y="-110" as="offset" />
          </mxGeometry>
        </mxCell>
        <mxCell id="nR_ijNIJFMgZy_12w77k-44" value="Landing" style="swimlane;fontStyle=1;align=center;verticalAlign=middle;childLayout=stackLayout;horizontal=1;startSize=30;horizontalStack=0;resizeParent=0;resizeLast=1;container=0;fontColor=#000000;collapsible=0;rounded=1;arcSize=30;strokeColor=#ff0000;fillColor=#ffffc0;swimlaneFillColor=#ffffc0;dropTarget=0;" vertex="1" parent="1">
          <mxGeometry x="250" y="1000" width="210" height="70" as="geometry" />
        </mxCell>
        <mxCell id="nR_ijNIJFMgZy_12w77k-45" value="- RC commands are disabled" style="text;html=1;strokeColor=none;fillColor=none;align=center;verticalAlign=middle;spacingLeft=4;spacingRight=4;whiteSpace=wrap;overflow=hidden;rotatable=0;fontColor=#000000;" vertex="1" parent="nR_ijNIJFMgZy_12w77k-44">
          <mxGeometry y="30" width="210" height="40" as="geometry" />
        </mxCell>
        <mxCell id="nR_ijNIJFMgZy_12w77k-48" value="" style="edgeStyle=orthogonalEdgeStyle;html=1;verticalAlign=bottom;endArrow=open;endSize=8;strokeColor=#ff0000;rounded=0;entryX=0.5;entryY=0;entryDx=0;entryDy=0;exitX=0.5;exitY=1;exitDx=0;exitDy=0;" edge="1" parent="1" source="nR_ijNIJFMgZy_12w77k-45" target="nR_ijNIJFMgZy_12w77k-50">
          <mxGeometry relative="1" as="geometry">
            <mxPoint x="355" y="1130" as="targetPoint" />
            <mxPoint x="365" y="950" as="sourcePoint" />
          </mxGeometry>
        </mxCell>
        <mxCell id="nR_ijNIJFMgZy_12w77k-49" value="Drone landed" style="edgeLabel;html=1;align=center;verticalAlign=middle;resizable=0;points=[];" vertex="1" connectable="0" parent="nR_ijNIJFMgZy_12w77k-48">
          <mxGeometry x="-0.1846" relative="1" as="geometry">
            <mxPoint y="7" as="offset" />
          </mxGeometry>
        </mxCell>
        <mxCell id="nR_ijNIJFMgZy_12w77k-50" value="Landed" style="rounded=1;whiteSpace=wrap;html=1;arcSize=40;fontColor=#000000;fillColor=#ffffc0;strokeColor=#ff0000;fontStyle=1" vertex="1" parent="1">
          <mxGeometry x="295" y="1150" width="120" height="40" as="geometry" />
        </mxCell>
        <mxCell id="nR_ijNIJFMgZy_12w77k-51" value="" style="edgeStyle=orthogonalEdgeStyle;html=1;verticalAlign=bottom;endArrow=open;endSize=8;strokeColor=#ff0000;rounded=0;" edge="1" parent="1" source="nR_ijNIJFMgZy_12w77k-19" target="nR_ijNIJFMgZy_12w77k-30">
          <mxGeometry relative="1" as="geometry">
            <mxPoint x="645" y="1000" as="targetPoint" />
            <mxPoint x="445" y="320" as="sourcePoint" />
          </mxGeometry>
        </mxCell>
        <mxCell id="nR_ijNIJFMgZy_12w77k-52" value="Abort signal received" style="edgeLabel;html=1;align=center;verticalAlign=middle;resizable=0;points=[];" vertex="1" connectable="0" parent="nR_ijNIJFMgZy_12w77k-51">
          <mxGeometry x="-0.1846" relative="1" as="geometry">
            <mxPoint x="-27" y="-5" as="offset" />
          </mxGeometry>
        </mxCell>
        <mxCell id="nR_ijNIJFMgZy_12w77k-57" value="" style="edgeStyle=orthogonalEdgeStyle;html=1;verticalAlign=bottom;endArrow=open;endSize=8;strokeColor=#ff0000;rounded=0;" edge="1" parent="1" source="nR_ijNIJFMgZy_12w77k-30" target="nR_ijNIJFMgZy_12w77k-50">
          <mxGeometry relative="1" as="geometry">
            <mxPoint x="460" y="1035" as="targetPoint" />
            <mxPoint x="530" y="1035" as="sourcePoint" />
            <Array as="points">
              <mxPoint x="635" y="1170" />
            </Array>
          </mxGeometry>
        </mxCell>
        <mxCell id="nR_ijNIJFMgZy_12w77k-58" value="Drone landed" style="edgeLabel;html=1;align=center;verticalAlign=middle;resizable=0;points=[];" vertex="1" connectable="0" parent="nR_ijNIJFMgZy_12w77k-57">
          <mxGeometry x="0.0804" y="2" relative="1" as="geometry">
            <mxPoint as="offset" />
          </mxGeometry>
        </mxCell>
        <mxCell id="nR_ijNIJFMgZy_12w77k-59" value="" style="edgeStyle=orthogonalEdgeStyle;html=1;verticalAlign=bottom;endArrow=open;endSize=8;strokeColor=#ff0000;rounded=0;" edge="1" parent="1" source="nR_ijNIJFMgZy_12w77k-50" target="nR_ijNIJFMgZy_12w77k-6">
          <mxGeometry relative="1" as="geometry">
            <mxPoint x="90" y="960" as="targetPoint" />
            <mxPoint x="645" y="1080" as="sourcePoint" />
            <Array as="points">
              <mxPoint x="90" y="1170" />
              <mxPoint x="90" y="310" />
            </Array>
          </mxGeometry>
        </mxCell>
        <mxCell id="nR_ijNIJFMgZy_12w77k-61" value="Start signal received" style="edgeLabel;html=1;align=center;verticalAlign=middle;resizable=0;points=[];" vertex="1" connectable="0" parent="nR_ijNIJFMgZy_12w77k-59">
          <mxGeometry x="-0.0494" y="-1" relative="1" as="geometry">
            <mxPoint as="offset" />
          </mxGeometry>
        </mxCell>
        <mxCell id="nR_ijNIJFMgZy_12w77k-62" value="Idle" style="swimlane;fontStyle=1;align=center;verticalAlign=middle;childLayout=stackLayout;horizontal=1;startSize=30;horizontalStack=0;resizeParent=0;resizeLast=1;container=0;fontColor=#000000;collapsible=0;rounded=1;arcSize=30;strokeColor=#ff0000;fillColor=#ffffc0;swimlaneFillColor=#ffffc0;dropTarget=0;" vertex="1" parent="1">
          <mxGeometry x="275" y="150" width="160" height="60" as="geometry" />
        </mxCell>
        <mxCell id="nR_ijNIJFMgZy_12w77k-63" value="Downward camera ON" style="text;html=1;strokeColor=none;fillColor=none;align=center;verticalAlign=middle;spacingLeft=4;spacingRight=4;whiteSpace=wrap;overflow=hidden;rotatable=0;fontColor=#000000;" vertex="1" parent="nR_ijNIJFMgZy_12w77k-62">
          <mxGeometry y="30" width="160" height="30" as="geometry" />
        </mxCell>
        <mxCell id="nR_ijNIJFMgZy_12w77k-66" value="" style="edgeStyle=orthogonalEdgeStyle;html=1;verticalAlign=bottom;endArrow=open;endSize=8;strokeColor=#ff0000;rounded=0;" edge="1" parent="1" source="nR_ijNIJFMgZy_12w77k-62" target="nR_ijNIJFMgZy_12w77k-6">
          <mxGeometry relative="1" as="geometry">
            <mxPoint x="365" y="150" as="targetPoint" />
            <mxPoint x="365" y="100" as="sourcePoint" />
          </mxGeometry>
        </mxCell>
        <mxCell id="nR_ijNIJFMgZy_12w77k-69" value="Start signal received" style="edgeLabel;html=1;align=center;verticalAlign=middle;resizable=0;points=[];" vertex="1" connectable="0" parent="nR_ijNIJFMgZy_12w77k-66">
          <mxGeometry x="-0.1406" relative="1" as="geometry">
            <mxPoint y="-1" as="offset" />
          </mxGeometry>
        </mxCell>
        <mxCell id="nR_ijNIJFMgZy_12w77k-70" value="" style="edgeStyle=orthogonalEdgeStyle;html=1;verticalAlign=bottom;endArrow=open;endSize=8;strokeColor=#ff0000;rounded=0;entryX=0.5;entryY=0;entryDx=0;entryDy=0;exitX=0.5;exitY=1;exitDx=0;exitDy=0;" edge="1" parent="1" source="nR_ijNIJFMgZy_12w77k-50" target="nR_ijNIJFMgZy_12w77k-3">
          <mxGeometry relative="1" as="geometry">
            <mxPoint x="370" y="1250" as="targetPoint" />
            <mxPoint x="590" y="1150" as="sourcePoint" />
            <Array as="points">
              <mxPoint x="360" y="1190" />
              <mxPoint x="360" y="1250" />
              <mxPoint x="355" y="1250" />
            </Array>
          </mxGeometry>
        </mxCell>
        <mxCell id="nR_ijNIJFMgZy_12w77k-71" value="Drone landed" style="edgeLabel;html=1;align=center;verticalAlign=middle;resizable=0;points=[];" vertex="1" connectable="0" parent="nR_ijNIJFMgZy_12w77k-70">
          <mxGeometry x="0.0804" y="2" relative="1" as="geometry">
            <mxPoint as="offset" />
          </mxGeometry>
        </mxCell>
      </root>
    </mxGraphModel>
  </diagram>
</mxfile>
